# This file uses centimeters as units for non-parametric coordinates.

mtllib step_3_medium.mtl
g default
v -0.500000 -0.500000 0.500000
v 0.000000 -0.500000 0.500000
v 0.000000 0.000000 0.500000
v 0.500000 0.500000 0.500000
v 0.000000 0.000000 -0.500000
v 0.500000 0.500000 -0.500000
v -0.500000 -0.500000 -0.500000
v 0.000000 -0.500000 -0.500000
v 0.000000 0.500000 -0.500000
v 0.000000 0.500000 0.500000
v -0.500000 0.000000 -0.500000
v -0.500000 0.000000 0.500000
v 0.500000 0.000000 0.500000
v 0.500000 0.000000 -0.500000
vt 0.375000 0.000000
vt 0.625000 0.000000
vt 0.375000 0.250000
vt 0.625000 0.250000
vt 0.375000 0.500000
vt 0.625000 0.500000
vt 0.375000 0.750000
vt 0.625000 0.750000
vt 0.375000 1.000000
vt 0.625000 1.000000
vt 0.875000 0.000000
vt 0.875000 0.250000
vt 0.125000 0.000000
vt 0.125000 0.250000
vt 0.500000 0.500000
vt 0.500000 0.250000
vt 0.125000 0.125000
vt 0.375000 0.625000
vt 0.375000 0.125000
vt 0.625000 0.125000
vt 0.625000 0.625000
vt 0.875000 0.125000
vn 0.000000 0.000000 1.000000
vn 0.000000 0.000000 1.000000
vn 0.000000 0.000000 1.000000
vn 0.000000 0.000000 1.000000
vn 0.000000 0.000000 1.000000
vn 0.000000 0.000000 1.000000
vn 0.000000 0.000000 1.000000
vn -0.707107 0.707107 0.000000
vn -0.707107 0.707107 0.000000
vn 0.000000 1.000000 0.000000
vn 0.000000 1.000000 0.000000
vn 0.000000 0.000000 -1.000000
vn 0.000000 0.000000 -1.000000
vn 0.000000 0.000000 -1.000000
vn 0.000000 0.000000 -1.000000
vn 0.000000 0.000000 -1.000000
vn 0.000000 0.000000 -1.000000
vn 0.000000 0.000000 -1.000000
vn 0.000000 -1.000000 0.000000
vn 0.000000 -1.000000 0.000000
vn 0.000000 -1.000000 0.000000
vn 0.000000 -1.000000 0.000000
vn 0.894427 -0.447214 0.000000
vn 0.894427 -0.447214 0.000000
vn 1.000000 0.000000 0.000000
vn 1.000000 0.000000 0.000000
vn -0.707107 0.707107 0.000000
vn -0.707107 0.707107 0.000000
vn 0.000000 1.000000 0.000000
vn 0.000000 1.000000 0.000000
vn -1.000000 0.000000 0.000000
vn -1.000000 0.000000 0.000000
vn -1.000000 0.000000 0.000000
vn -1.000000 0.000000 0.000000
vn 0.707107 -0.707107 0.000000
vn 0.707107 -0.707107 0.000000
s off
g pCube1
usemtl initialShadingGroup
f 1/1/1 2/2/2 13/20/3 4/4/4 10/16/5 3/3/6 12/19/7
s 1
f 9/15/8 10/16/9 4/4/10 6/6/11
s off
f 5/5/12 9/15/13 6/6/14 14/21/15 8/8/16 7/7/17 11/18/18
f 7/7/19 8/8/20 2/10/21 1/9/22
s 2
f 13/20/23 14/22/24 6/12/25 4/4/26
s 3
f 11/17/27 12/19/28 3/3/29 5/14/30
s 1
f 3/3/31 10/16/9 9/15/8 5/5/32
s 3
f 7/13/33 1/1/34 12/19/28 11/17/27
s 2
f 2/2/35 8/11/36 14/22/24 13/20/23
