# This file uses centimeters as units for non-parametric coordinates.

mtllib step_3.mtl
g default
v -0.834674 -0.500000 0.500000
v -0.004644 -0.500000 0.500000
v -0.267287 0.189389 0.500000
v 0.500000 0.500000 0.500000
v -0.267287 0.189389 -0.500000
v 0.500000 0.500000 -0.500000
v -0.834674 -0.500000 -0.500000
v -0.004644 -0.500000 -0.500000
v -0.179380 0.500000 0.500000
v -0.179380 0.500000 -0.500000
v -0.834674 0.048679 0.500000
v -0.834674 0.048679 -0.500000
v 0.425736 -0.063251 0.500000
v 0.425736 -0.063251 -0.500000
vt 0.375000 0.000000
vt 0.625000 0.000000
vt 0.375000 0.250000
vt 0.625000 0.250000
vt 0.375000 0.500000
vt 0.625000 0.500000
vt 0.375000 0.750000
vt 0.625000 0.750000
vt 0.375000 1.000000
vt 0.625000 1.000000
vt 0.875000 0.000000
vt 0.875000 0.250000
vt 0.125000 0.000000
vt 0.125000 0.250000
vt 0.425000 0.250000
vt 0.425000 0.500000
vt 0.375000 0.200000
vt 0.125000 0.200000
vt 0.375000 0.550000
vt 0.625000 0.075000
vt 0.625000 0.675000
vt 0.875000 0.075000
vn 0.000000 0.000000 1.000000
vn 0.000000 0.000000 1.000000
vn 0.000000 0.000000 1.000000
vn 0.000000 0.000000 1.000000
vn 0.000000 0.000000 1.000000
vn 0.000000 0.000000 1.000000
vn 0.000000 0.000000 1.000000
vn -0.962208 0.272317 0.000000
vn -0.375237 0.926929 0.000000
vn -0.375237 0.926929 0.000000
vn -0.962208 0.272317 0.000000
vn -0.000000 0.000000 -1.000000
vn -0.000000 0.000000 -1.000000
vn -0.000000 0.000000 -1.000000
vn -0.000000 0.000000 -1.000000
vn -0.000000 0.000000 -1.000000
vn -0.000000 0.000000 -1.000000
vn -0.000000 0.000000 -1.000000
vn 0.000000 -1.000000 0.000000
vn 0.000000 -1.000000 0.000000
vn 0.000000 -1.000000 0.000000
vn 0.000000 -1.000000 0.000000
vn 0.892763 -0.450527 0.000000
vn 0.892763 -0.450527 0.000000
vn 0.991420 -0.130717 0.000000
vn 0.991420 -0.130717 0.000000
vn -1.000000 0.000000 0.000000
vn -1.000000 0.000000 0.000000
vn -0.772119 0.635477 0.000000
vn -0.772119 0.635477 0.000000
vn 0.000000 1.000000 0.000000
vn 0.000000 1.000000 0.000000
vn -0.240704 0.970599 0.000000
vn -0.240704 0.970599 0.000000
vn 0.712281 -0.701894 0.000000
vn 0.712281 -0.701894 0.000000
s off
g pCube1
usemtl initialShadingGroup
f 1/1/1 2/2/2 13/20/3 4/4/4 9/15/5 3/3/6 11/17/7
s 1
f 3/3/8 9/15/9 10/16/10 5/5/11
s off
f 5/5/12 10/16/13 6/6/14 14/21/15 8/8/16 7/7/17 12/19/18
f 7/7/19 8/8/20 2/10/21 1/9/22
s 2
f 13/20/23 14/22/24 6/12/25 4/4/26
s 3
f 7/13/27 1/1/28 11/17/29 12/18/30
s 1
f 10/16/10 9/15/9 4/4/31 6/6/32
s 3
f 12/18/30 11/17/29 3/3/33 5/14/34
s 2
f 2/2/35 8/11/36 14/22/24 13/20/23
